<svg width="1228" height="1228" viewBox="0 0 1228 1228" fill="none" xmlns="http://www.w3.org/2000/svg">
<g clip-path="url(#clip0_740_221773)">
<path d="M1078.94 112.289C1045.75 111.797 968.645 123.093 839.913 209.463C769.752 191.885 695.101 183.211 620.322 183.211C538.044 183.211 454.897 193.684 377.357 215.007C192.534 88.6115 110.955 114.514 110.955 114.514C57.6968 248.023 90.6078 346.869 100.611 371.418C38.0138 439.142 -0.200195 525.622 -0.200195 631.613C-0.200195 711.63 8.88481 783.4 31.0808 845.789C32.3118 850.604 31.9128 849.53 33.9868 853.652C38.8768 866.568 44.3138 879.105 50.4248 891.212C52.5188 895.569 54.4248 898.794 54.4248 898.794C116.82 1015.39 239.821 1090.7 458.669 1114.35L789.664 1114.72C1023.06 1091.52 1135.05 1015.98 1186.66 898.605L1189.94 890.961C1194.83 879.105 1199.09 866.767 1210.75 825.239C1222.41 783.711 1227.63 711.79 1227.63 631.581C1227.63 516.545 1184.53 424.498 1114.53 354.47C1126.77 314.893 1143.1 227.001 1098.22 114.482C1098.22 114.482 1091.93 112.482 1078.94 112.288L1078.94 112.289ZM818.1 534.439C871.993 534.321 918.157 543.597 952.817 580.049V580.08C996.186 625.733 1021.57 680.851 1021.57 740.249C1021.57 1017.58 843.634 1025.13 624.166 1025.13C404.66 1025.13 226.766 986.698 226.766 740.249C226.766 681.244 251.775 626.455 294.609 580.988C366.06 505.213 486.974 545.339 624.167 545.339C694.59 545.328 760.731 534.563 818.102 534.438L818.1 534.439ZM409.293 616.106C363.627 616.106 326.606 677.998 326.606 754.38C326.606 830.772 363.625 892.685 409.293 892.685C454.959 892.685 491.98 830.772 491.98 754.38C491.98 678.009 454.961 616.161 409.293 616.106ZM852.942 616.106C807.276 616.106 770.255 677.998 770.255 754.38C770.255 830.772 807.274 892.685 852.942 892.685C898.608 892.685 935.629 830.772 935.629 754.38C935.629 678.009 898.61 616.161 852.942 616.106Z" fill="white"/>
</g>
<defs>
<clipPath id="clip0_740_221773">
<rect width="1228" height="1228" fill="white"/>
</clipPath>
</defs>
</svg>
