<svg width="16" height="19" viewBox="0 0 16 19" fill="none" xmlns="http://www.w3.org/2000/svg">
<path fill-rule="evenodd" clip-rule="evenodd" d="M8.70922 0.00822632C11.5571 -0.0990844 13.9873 0.843491 16 2.83596C15.1473 3.70002 14.2842 4.55174 13.4108 5.39114C11.5554 3.7114 9.44314 3.29126 7.07391 4.13058C4.27874 5.59903 3.2226 7.88165 3.90548 10.9785C4.66699 13.2392 6.22279 14.5678 8.57294 14.9645C10.449 15.1797 12.0502 14.6232 13.3767 13.2952C14.217 14.1355 15.0574 14.9759 15.8978 15.8163C15.9488 15.8936 15.9375 15.9617 15.8637 16.0207C13.269 18.3952 10.2483 19.1788 6.80135 18.3715C2.82897 17.047 0.569079 14.3101 0.0216094 10.1608C-0.190648 6.55432 1.16076 3.7039 4.07583 1.60947C5.49147 0.677125 7.03588 0.143378 8.70922 0.00822632Z" fill="#FDFEFE"/>
</svg>
