
<svg xmlns="http://www.w3.org/2000/svg" xmlns:xlink="http://www.w3.org/1999/xlink" viewBox="0 0 551.97364 561.93603"><defs><style>.cls-1{fill:none;}.cls-2{clip-path:url(#clip-path);}.cls-3,.cls-4,.cls-6,.cls-9{fill-rule:evenodd;}.cls-3{fill:url(#未命名漸層_306);}.cls-4{fill:url(#未命名漸層_305);}.cls-5{opacity:0.5;}.cls-6{fill:#98ffe3;}.cls-7{opacity:0.63;}.cls-8{opacity:0.47;}.cls-9{fill:#98ffed;}.cls-10{fill:url(#未命名漸層_304);}</style><clipPath id="clip-path" transform="translate(-0.03955 -0.03918)"><rect class="cls-1" width="552" height="562"/></clipPath><radialGradient id="未命名漸層_306" cx="5.07655" cy="701.38242" r="0.99992" gradientTransform="matrix(276.00699, 0, 0, -275.97198, -1125.13638, 193837.88324)" gradientUnits="userSpaceOnUse"><stop offset="0.81" stop-color="#00ffed"/><stop offset="0.97917" stop-color="#00872b" stop-opacity="0"/></radialGradient><radialGradient id="未命名漸層_305" cx="5.08046" cy="701.49204" r="1" gradientTransform="matrix(352.047, 0, 0, -352.00299, -1567.19045, 247119.514)" gradientUnits="userSpaceOnUse"><stop offset="0" stop-color="#50ffed"/><stop offset="0.84" stop-color="#1ca7b3"/><stop offset="0.95" stop-color="#14c2a2"/><stop offset="1" stop-color="#21ffed"/></radialGradient><radialGradient id="未命名漸層_304" cx="4.46452" cy="699.99216" r="0.99977" gradientTransform="matrix(106.48696, -68.17146, -32.72062, -51.11111, 22854.03555, 36563.44938)" gradientUnits="userSpaceOnUse"><stop offset="0" stop-color="#00f1ed"/><stop offset="1" stop-color="#00872b" stop-opacity="0"/></radialGradient></defs><title>green planet</title><g id="圖層_2" data-name="圖層 2"><g id="圖層_1-2" data-name="圖層 1"><g class="cls-2"><path class="cls-3" d="M552.013,275.985c0,152.404-123.596,275.946-276.019,275.946a274.695,274.695,0,0,1-117.31-26.134c-7.025-3.295-13.892-6.906-20.588-10.768A275.88947,275.88947,0,0,1,67.2489,456.408,276.08542,276.08542,0,0,1,24.5693,162.104,267.63068,267.63068,0,0,1,41.8231,129.96,275.88719,275.88719,0,0,1,422.815,42.3051c4.824,3.0444,9.543,6.2074,14.13,9.5418,3.849,2.7544,7.632,5.6407,11.322,8.606A275.01746,275.01746,0,0,1,550.3,245.396,268.369,268.369,0,0,1,552.013,275.985Z" transform="translate(-0.03955 -0.03918)"/><path class="cls-4" d="M532.044,275.985c0,141.387-114.673,255.993-256.051,255.993a254.64637,254.64637,0,0,1-108.86-24.263c-6.511-3.044-12.878-6.392-19.099-9.977a256.52026,256.52026,0,0,1-65.7328-54.377A251.76368,251.76368,0,0,1,63.3603,418.61,256.20485,256.20485,0,0,1,42.6928,170.367a247.24862,247.24862,0,0,1,16.0147-29.824A255.98065,255.98065,0,0,1,412.151,59.2273c4.482,2.8335,8.845,5.7724,13.102,8.8564,3.585,2.5567,7.091,5.2716,10.545,7.9866A255.90816,255.90816,0,0,1,530.41,247.69,251.65062,251.65062,0,0,1,532.044,275.985Z" transform="translate(-0.03955 -0.03918)"/><g class="cls-5"><g class="cls-5"><path class="cls-6" d="M530.463,247.624a36.52463,36.52463,0,0,0-2.294,5.126,42.19923,42.19923,0,0,1-3.611,7.341,91.23228,91.23228,0,0,0-3.955,9.344c-2.979,6.893-5.16706,14.379-7.645,21.469-2.754,7.908-5.351,15.815-8.738,23.459-1.516,3.466-3.731,6.59-5.273,9.977s-3.058,6.708-4.943,9.989c-4.666,8.013-8.884,16.185-13.826,24.066-8.884,14.194-19.574,26.806-29.934,39.919-5.272,6.59-11.415,12.349-17.412,18.306-6.775,6.695-12.733,14.194-19.771,20.744a134.94864,134.94864,0,0,1-17.293,14.497c-3.533,2.333-6.933,4.929-10.466,7.223-4.521,2.939-9.833,4.599-14.657,6.971-16.041,7.723-33.216,12.547-50.087,17.964-16.529,5.271-32.465,12.507-49.336,16.724-3.467.87-6.973,1.213-10.479,1.924-3.796.751-7.447,1.845-11.335,2.254-7.751.87-15.25,3.466-23.08,3.954-5.47.263-10.545-.791-15.896-1.055a169.88915,169.88915,0,0,0-20.536.896,111.06784,111.06784,0,0,1-22.71-.869c-6.512-3.045-12.878-6.392-19.099-9.977l.711.224c4.456,1.437,8.594,3.954,13.076,5.048,4.784,1.094,9.754,1.884,14.696,2.715a58.78183,58.78183,0,0,0,19.574.118c3.467-.566,6.973-.988,10.439-1.7,3.77-.791,7.566.185,11.336-.672,5.272-1.318,11.045-.264,16.383-.461,9.227-.303,18.23-3.69,27.127-5.496,9.872-1.99,19.244-5.575,29.301-6.774,5.733-.685,10.241-2.636,15.672-4.336,4.666-1.437,7.645-4.033,11.52-6.972,7.46-5.575,14.999-11.294,23.725-14.906a139.856,139.856,0,0,1,27.008-7.907,47.97229,47.97229,0,0,0,21.616-10.28c2.571-2.306,5.009-4.718,7.54-7.051a111.35671,111.35671,0,0,0,9.226-8.579c3.164-3.625,6.775-6.933,9.899-10.544,3.467-4.019,6.301-8.54,9.728-12.573,5.456-6.444,13.787-9.792,19.164-16.342,1.134-1.318,1.885-3.018,3.058-4.336s2.518-2.069,3.269-3.835c.91-2.148,3.137-7.117,1.925-9.528-2.412-4.864-15.185,7.643-17.215,9.594-3.163,2.978-5.76,6.036-9.569,8.211a55.5936,55.5936,0,0,1-6.999,3.729c-4.073,1.661-8.778,1.845-13.075,2.755-11.942,2.557-24.108,3.954-36.155,5.838-16.318,2.517-32.807,5.944-48.862,9.858-15.026,3.664-29.907,7.908-44.933,11.453-7.988,1.924-15.975,3.954-23.989,5.693-9.793,2.188-19.402,5.193-29.235,7.078-16.199,2.938-32.491,6.523-49.007,6.971-12.956.343-25.794,1.015-38.764,1.015-17.465,0-36.195,1.766-53.33-2.333a4.52923,4.52923,0,0,1-.6458-.184A251.76368,251.76368,0,0,1,63.3603,418.61a87.78182,87.78182,0,0,0,19.5867,6.142c4.9033.87,10.0966,1.99,14.1563,4.929a29.47575,29.47575,0,0,0,8.4757,4.784c11.151,3.585,21.089,3.361,32.253.079q6.261-1.85853,12.43-3.875c3.044-1.028,5.839-2.833,8.883-3.663,8.634-2.254,17.557-3.875,26.257-5.865,4.138-.949,8.475-1.74,12.548-2.979,4.587-1.436,8.884-3.769,13.286-5.574,8.436-3.467,16.278-7.038,25.32-8.593,5.681-.936,12.272-1.648,17.478-4.284,1.687-.83,4.218-2.003,3.954-4.256-.303-2.794-3.954-2.043-5.957-1.701-5.839,1.015-11.784,1.542-17.584,3.084a156.15473,156.15473,0,0,1-31.304,4.824c-15.896,1.054-32.095,2.003-48.031,1.173-12.654-.646-25.386-1.779-38.04-1.661-12.245.119-24.147-.935-35.7857-4.784-13.1413-4.322-26.5199-8.276-38.6726-14.945a256.58147,256.58147,0,0,1,.0791-211.078c-1.7004,4.679-3.1239,9.463-5.0878,13.97a69.6204,69.6204,0,0,0-6.2082,27.676,79.59423,79.59423,0,0,1-.0791,11.216c-.6459,4.744-1.0149,7.802.3427,12.586,1.0149,3.506,1.3181,6.893,2.8602,10.28a9.40141,9.40141,0,0,0,2.0299,2.82,25.16087,25.16087,0,0,1,2.0035,3.361c2.0694,3.387,5.0483,7.907,8.6203,9.858a40.77112,40.77112,0,0,0,7.4603,2.833c3.0052.857,4.1784,1.2,7.1968.106a30.19291,30.19291,0,0,1,7.6052-1.951,19.9707,19.9707,0,0,1,4.2179.936c1.8058.303,3.5852.145,5.4305.527,7.5263,1.582,14.868,3.427,22.592,3.348,6.063-.066,12.021.949,18.163.949,7.381,0,14.684.224,21.986-.712,4.943-.646,10.254-1.885,15.184-2.188s10.215.145,15.25.079c17.518-.276,35.589-4.494,50.812-13.337a110.08734,110.08734,0,0,1,25.888-11.071c11.678-3.36,23.606-6.668,35.588-8.935a140.40552,140.40552,0,0,0,32.227-10.398,87.38525,87.38525,0,0,0,12.996-7.578c3.77-2.557,7.909-4.508,11.52-7.183,10.545-7.802,19.771-16.949,28.998-26.253,5.272-5.272,10.624-10.543,16.133-15.591,4.548-4.151,9.372-5.997,15.211-7.42,9.306-2.227,14.499-12.691,19.508-20.19,6.327-9.45,11.573-20.296,11.863-31.934a66.61643,66.61643,0,0,0-1.095-14.3122,23.98077,23.98077,0,0,0-1.766-6.1415,21.72825,21.72825,0,0,1-1.845-3.7692c-.264-1.1202-.303-2.2932-.527-3.308s-.752-2.0427-.976-2.8598c-.527-2.1878-1.621-5.2058-1.476-7.6176v-.145c3.585,2.5568,7.091,5.2717,10.545,7.9866a16.486,16.486,0,0,1-.079,3.0048c-.224,1.2125-.646,2.2273-.87,3.4266-.303,1.7792-.976,2.794-.936,4.7445a24.74459,24.74459,0,0,0,.448,5.8121c1.239,4.7445,4.337,9.1467,4.297,14.1547a39.316,39.316,0,0,1-3.322,14.747c-1.805,4.521-3.756,8.698-5.944,13.034a50.09833,50.09833,0,0,1-5.009,8.132,58.83478,58.83478,0,0,0-5.272,7.38,67.92443,67.92443,0,0,0-3.058,6.405c-1.661,3.954-4.337,6.023-7.342,8.962-6.182,5.957-13.906,10.781-20.536,16.501a97.42952,97.42952,0,0,0-14.723,15.208c-1.884,2.636-11.52,10.135-8.923,14.089,1.16,1.74,4.824,1.173,6.472,1.173a26.94765,26.94765,0,0,0,10.966-2.451c9.372-4.257,18.717-9.305,28.589-12.244,4.442-1.318,9.227-2.03,13.405-3.954a127.99673,127.99673,0,0,0,14.697-8.052c3.73-2.307,5.945-5.272,8.739-8.593,1.582-1.885,3.796-2.939,5.536-4.665,2.03-2.043,3.308-4.415,5.575-6.181a70.585,70.585,0,0,0,14.381-15.512c3.664-5.272,5.008-11.862,6.59-17.858a23.29856,23.29856,0,0,0,1.054-4.745c.066-2.029,0-4.138,0-6.181v-.329A253.90733,253.90733,0,0,1,530.463,247.624Z" transform="translate(-0.03955 -0.03918)"/></g><g class="cls-5"><path class="cls-6" d="M413.773,80.7884c-.976,5.7988-1.503,11.5186-2.636,17.3174-1.134,5.7992-1.424,12.2432-3.77,17.5942-3.954,9.225-5.193,19.466-11.441,27.597-2.636,3.466-4.719,7.196-8.106,10.095a28.98912,28.98912,0,0,1-4.06,2.228c-1.318.87-2.715,2.188-3.954,3.123-6.709,4.903-13.827,9.951-19.771,15.815-6.367,6.26-12.43,12.402-19.956,17.331-2.267,1.463-4.64,2.517-6.973,3.809a49.19453,49.19453,0,0,1-5.655,3.229,26.20345,26.20345,0,0,0-6.695,3.163,28.365,28.365,0,0,1-5.919,3.36c-3.611,1.424-7.117,3.124-10.729,4.521-1.661.672-3.4,1.054-5.088,1.647-4.784,1.819-8.29,1.661-14.498,2.148-1.951-.856-.29-.935,1.318-1.647a7.14357,7.14357,0,0,0,2.557-1.964,33.71572,33.71572,0,0,1,4.363-3.953c2.715-1.964,6.3-2.939,9.226-4.705,3.73-2.333,7.421-5.167,11.033-7.684,3.057-2.109,5.351-5.43,7.908-8.066,2.715-2.859,5.997-5.416,8.963-8.092,3.467-3.084,6.445-6.589,9.951-9.647a36.80587,36.80587,0,0,0,8.818-11.07c.976-1.806,2.558-3.124,3.573-4.969a46.44115,46.44115,0,0,0,2.86-5.192c.87-2.149,2.003-4.152,2.939-6.221,1.054-2.412,1.015-5.272,1.542-7.789,1.582-7.538,3.098-15.143,4.482-22.721a127.84807,127.84807,0,0,0,1.436-19.4655c.224-6.181,1.964-12.2039,1.991-18.4509a15.10207,15.10207,0,0,0-.897-6.7477c-1.318-2.939-2.794-5.4957-3.848-8.5533a49.60313,49.60313,0,0,0-17.135-23.6039c-1.2-.8698-5.009-3.163-8.779-5.9174A254.04684,254.04684,0,0,1,412.27,59.2404,50.29775,50.29775,0,0,1,413.773,80.7884Z" transform="translate(-0.03955 -0.03918)"/></g><g class="cls-5"><path class="cls-6" d="M339.565,81.1969c-.554,3.2421-2.518,5.6934-3.427,8.7774a73.95693,73.95693,0,0,0-2.333,10.7017c-.752,5.495-.264,10.952-.897,16.487a94.8697,94.8697,0,0,1-9.226,29.983c-4.6,9.37-12.469,17.053-21.09,22.865-8.883,6.063-18.756,10.689-28.47,15.17-5.536,2.53-11.375,3.584-17.03,5.733-4.745,1.766-9.411,3.795-14.13,5.64-4.718,1.845-8.963,5.008-13.629,6.524-2.899.936-5.76,1.911-8.659,2.965-4.983,1.78-9.504,4.415-14.354,6.485a123.32363,123.32363,0,0,1-21.248,6.971c-7.197,1.687-14.156.593-21.392-.303a174.342,174.342,0,0,1-18.124-2.636c-10.953-2.635-22.75-1.884-33.927-1.884-8.476,0-18.269.83-25.7689-3.77-2.1485-1.317-4.5211-2.714-5.7205-4.968-1.4763-2.794-1.6608-6.326-2.3067-9.344-1.3181-6.208-7.223-10.438-11.2564-14.985-5.2723-5.957-7.2758-13.482-8.3303-21.166a57.299,57.299,0,0,1,.4614-19.927A254.93334,254.93334,0,0,1,105.579,84.9925c-4.284,8.1316-7.5266,16.7635-11.2964,25.1595-5.6809,12.573-10.6896,26.279-10.2019,40.328.1845,5.509.6326,11.677,3.572,16.461,2.2671,3.69,5.9973,6.365,9.6088,8.553,5.9185,3.545,11.8625,7.459,18.2295,9.898,7.196,2.754,14.393,5.39,21.55,8.144,4.179,1.582,8.212,3.387,12.733,3.954a117.496,117.496,0,0,0,16.687.145c19.692-.527,37.882-9.753,56.414-15.327,5.958-1.806,12.139-2.636,18.005-4.587a76.91268,76.91268,0,0,0,10.255-4.678c8.238-4.257,17.24-7.46,24.964-12.771a106.37536,106.37536,0,0,0,20.72-18.859c4.6-5.509,6.67-11.005,8.924-17.779,4.442-13.337,6.142-26.174,7.341-40.078.528-5.9043,2.571-11.176,3.955-16.9089.896-3.7956.369-8.1711-2.637-10.9255-6.102-5.3771-15.105-8.7378-22.908-10.5434-4.745-1.1334-9.226-2.6358-14.156-2.6358H262.905c-4.824,0-9.148-1.0148-13.787-1.0148-5.457,0-10.545,1.5419-15.936,1.9637a157.4306,157.4306,0,0,0-16.832,2.1086c-6.59,1.1598-12.956,3.7957-19.362,5.7198a110.60084,110.60084,0,0,0-35.391,17.8578c-2.636,2.0296-5.496,3.6507-8.251,5.4562-2.412,1.621-3.282,3.4661-4.824,5.8779a49.54771,49.54771,0,0,0-6.775,15.6305,45.87346,45.87346,0,0,0-.87,12.2439,96.86977,96.86977,0,0,1-1.621,16.526c-1.318,7.684-8.7,19.097-.567,25.238a10.53511,10.53511,0,0,0,7.908,1.845,90.05016,90.05016,0,0,0,12.272-2.859c11.269-3.163,23.053-6.933,34.731-8.409,3.546-.448,6.894-.184,10.4-1.08,2.188-.607,4.257-1.318,6.472-1.74,5.127-.936,10.254-4.257,14.274-7.604,1.846-1.542,3.362-3.427,5.273-4.969,2.557-2.109,5.641-3.506,8.093-5.772,3.506-3.229,6.854-6.735,10.136-10.201,6.735-7.077,11.599-15.9338,17.32-23.7227,3.624-4.9422,7.644-10.3193,8.633-16.4608.751-4.7445-5.048-7.2749-8.594-8.7773A23.72665,23.72665,0,0,0,253.402,58.7c-5.76,1.028-11.033,4.4546-16.384,6.7478-11.784,5.1662-24.938,6.4446-35.18,14.7211-3.73,2.9785-3.545,5.8384-4.705,9.9899a37.58855,37.58855,0,0,1-2.9,5.7197c-1.542,2.8599-1.74,3.5716-.949,6.5895s1.516,7.038,4.943,8.356c2.965,1.173,7.75.158,10.32-1.463a22.52139,22.52139,0,0,1,4.706-2.86c1.094-.422,3.77-1.661,4.824-1.318,1.885.712.488,1.871-.303,2.899a14.177,14.177,0,0,0-1.701,2.9,9.02226,9.02226,0,0,1-1.133,2.939c-3.005,3.426-8.989,5.153-13.181,6.589-3.651,1.318-6.393,2.781-10.386,2.821-5.391,0-3.203-3.954-3.955-7.908-1.054-5.008-6.827-6.879-7.46-12.085-.633-5.2058.975-10.952,3.084-15.512a38.90391,38.90391,0,0,1,3.361-5.4693c1.991-3.0444,4.93-4.85,7.975-6.8927,8.963-5.9043,20.153-8.7378,30.316-12.1644,10.162-3.4266,21.247-4.0197,31.304-7.6044,6.854-2.4514,14.051-3.2421,21.09-4.5205,6.511-1.1597,12.245,1.397,14.947,7.3408,2.873,6.2997,6.261,13.1133,4.257,20.0851-2.715,9.5945-5.905,19.123-10.953,27.7954-6.222,10.688-13.787,20.783-25.044,26.701-7.908,4.177-16.502,6.51-24.859,9.634a97.29156,97.29156,0,0,1-19.6,5.522c-10.439,1.581-20.008,7.749-30.21,10.319a411.94533,411.94533,0,0,1-42.601,8.276,50.48687,50.48687,0,0,1-15.289.462c-2.412-.343-4.64-.119-6.934-1.134-1.621-.711-3.282-1.476-4.89-2.148-5.575-2.412-10.966-6.405-10.333-13.179.606-6.366,2.913-12.771,4.112-19.018.83-4.151.909-8.25,1.924-12.401.752-3.163,1.463-6.392,2.333-9.529a26.86677,26.86677,0,0,1,3.282-7.749c2.966-4.1516,5.273-9.0016,8.397-12.9553a33.09376,33.09376,0,0,0,3.611-4.6786,18.2509,18.2509,0,0,1,2.755-4.2174c1.199-1.3179,2.03-3.0443,3.308-4.3623a59.20578,59.20578,0,0,1,8.067-6.1415,111.20842,111.20842,0,0,1,19.653-11.5581c6.748-2.939,13.787-4.9027,20.72-7.2354,6.221-2.1482,11.981-5.5353,18.163-7.9075A94.60315,94.60315,0,0,1,223.6,37.8242a352.07027,352.07027,0,0,1,44.551-3.0971c18.69.0791,39.397-6.9981,57.139,1.9242a19.55563,19.55563,0,0,1,9.951,10.4379,58.63761,58.63761,0,0,1,4.521,23.7225C339.723,74.2647,340.131,77.8494,339.565,81.1969Z" transform="translate(-0.03955 -0.03918)"/></g></g><g class="cls-7"><g class="cls-7"><path class="cls-6" d="M50.2326,161.629c1.3181,3.453,3.0051,6.471,4.1255,9.977a30.0031,30.0031,0,0,0,3.0053,7.143c1.3971,2.267,2.2407,4.85,3.572,7.183a35.94333,35.94333,0,0,1,3.4929,8.184c.5404,2.109.6326,4.336,1.2126,6.471.7381,2.728,1.4763,5.469,2.2408,8.198a18.3118,18.3118,0,0,0,2.333,4.784c1.0017,1.607,2.1617,4.125,3.7302,5.271,5.0482,3.572,12.2845,2.056,18.1104,1.424,5.2724-.567,10.6767-.607,15.9887-1.318a47.05981,47.05981,0,0,1,8.409-.198,63.04011,63.04011,0,0,1,8.001.909c2.293.448,4.521.514,6.827.883,3.309.528,6.591,1.318,9.912,1.661,3.704.29,7.514.83,11.217.909,5.273.093,10.716-.448,16.015.119a134.60632,134.60632,0,0,0,13.945,1.318c6.077,0,12.14-1.806,17.781-3.862,9.398-3.426,19.086-6.22,28.524-9.673a64.20656,64.20656,0,0,0,9.806-5.272c2.887-1.687,5.984-2.794,8.765-4.652a51.6401,51.6401,0,0,1,17.135-6.748c5.932-1.318,11.666-3.466,17.544-4.85,3.954-.922,7.724-2.926,11.652-3.44-.738,3.084-7.473,4.205-9.886,5.074-5.575,1.99-11.625,3.084-17.016,5.509-3.519,1.595-6.024,4.639-8.792,7.223-2.636,2.372-4.468,4.836-7.407,6.8a25.23679,25.23679,0,0,1-9.583,3.954c-7.579,1.515-14.973,4.23-22.526,5.904-7.552,1.674-14.934,3.4-21.88,6.59-1.924.896-7.579,3.123-7.816,5.904-.185,2.227,2.517,1.41,4.086,1.41,3.374,0,7.829-.804,11.006.527a39.61912,39.61912,0,0,0,7.091,2.715,31.96974,31.96974,0,0,0,17.135-1.792c7.25-2.821,15.171-4.257,22.79-5.707,5.272-1.015,10.4-2.53,15.659-3.637a106.93922,106.93922,0,0,1,12.232-1.45c5.957-.567,11.928-1.252,17.846-2.24,4.732-.804,9.912-1.318,14.249-3.387,3.598-1.767,7.816-2.874,10.993-5.351.843-.659,5.641-4.797,6.761-3.849,2.333,2.004-10.94,9.555-11.862,10.175a71.89883,71.89883,0,0,1-13.577,6.708c-6.036,2.464-12.231,3.545-18.453,5.113-7.17,1.78-14.314,3.256-21.445,5.074-7.131,1.819-14.499,2.729-21.63,5.114a75.18514,75.18514,0,0,0-10.465,4.099c-3.085,1.581-6.367,2.636-9.411,4.283-6.591,3.519-12.746,8.461-19.877,10.754a84.48366,84.48366,0,0,1-19.152,4.218c-8.554.685-17.135-.514-25.597-1.397a218.03655,218.03655,0,0,0-26.124-1.477c-8.067.132-16.121,1.819-24.174,2.201-5.549.264-10.0043-1.713-15.1053-3.611a90.4108,90.4108,0,0,1-15.896-8.052,26.83683,26.83683,0,0,0-15.013-4.086,19.53583,19.53583,0,0,0-3.3348.765,5.56733,5.56733,0,0,1-3.6116-.989c-4.7451-2.227-9.5033-5.891-11.8627-10.794a57.802,57.802,0,0,1-4.4419-16.592,77.05136,77.05136,0,0,1-.1186-9.871c0-4.363-.7909-8.659-.7513-13.048,0-6.932-.7909-14.286,1.3971-20.994,2.0431-6.313,6.2477-12.204,10.0833-17.529,2.188-3.018,3.9543-6.26,6.2346-9.225.804,1.582-1.1072,4.613-1.5026,6.247C52.3415,159.666,51.4584,163.975,50.2326,161.629Z" transform="translate(-0.03955 -0.03918)"/></g><g class="cls-7"><path class="cls-6" d="M375.667,199.454c-2.043,2.636-5.72,6.023-6.287,9.489s3.216,2.873,5.668,2.504c5.272-.83,10.808-1.318,15.817-3.4,2.965-1.226,5.733-2.926,8.699-4.165,2.452-1.041,5.075-1.41,7.526-2.438,5.839-2.465,12.127-3.769,17.913-6.432a51.399,51.399,0,0,0,13.642-9.989c2.847-2.729,5.589-4.85,7.553-8.369,1.436-2.636,3.15-5.14,4.336-7.908a44.46938,44.46938,0,0,0,2.834-11.532,26.15649,26.15649,0,0,0,.079-6.339c-.659-4.823-5.509-5.271-9.609-4.705-5.048.699-9.108,3.638-12.851,6.853-3.743,3.216-6.59,6.801-10.676,9.226-4.495,2.741-8.871,5.509-13.181,8.474a39.592,39.592,0,0,0-6.472,5.1c-1.634,1.674-3.216,3.467-4.996,4.995a45.75243,45.75243,0,0,1-5.839,4.073c-1.647,1.028-3.163,2.477-4.85,3.36a23.951,23.951,0,0,0-6.011,4.284,16.44975,16.44975,0,0,0-3.255,3.835C374.323,198.979,374.599,202.195,375.667,199.454Z" transform="translate(-0.03955 -0.03918)"/></g><g class="cls-7"><path class="cls-6" d="M434.19,129.525c.87-2.715,1.45-3.73,3.954-5.035,1.556-.817,2.636-1.028,3.757.699,2.03,3.334.566,7.393-.752,10.609-.949,2.346-4.732,4.705-6.458,1.753-1.16-2.003-1.121-7.907,1.647-8.738Z" transform="translate(-0.03955 -0.03918)"/></g><g class="cls-7"><path class="cls-6" d="M220.094,228.712c1.318-2.439,1.621-2.702,3.954-3.585a14.65155,14.65155,0,0,1,4.706-1.424c2.016-.197,4.218-1.317,6.261-.553,3.137,1.12,2.544,3.875.421,5.825a6.47349,6.47349,0,0,1-3.137,1.872,21.95528,21.95528,0,0,1-5.021.711c-2.874,0-5.273.119-7.777-1.568a1.13278,1.13278,0,0,1,.659-1.318Z" transform="translate(-0.03955 -0.03918)"/></g><g class="cls-7"><path class="cls-6" d="M100.188,409.201a78.414,78.414,0,0,0,25.465,4.362,263.22717,263.22717,0,0,0,30.751-.923c6.801-.645,13.55-.474,20.325-1.436,3.282-.475,6.406-.33,9.688-.488,1.885-.079,3.862-1.199,5.707-.619,7.131,2.174-5.536,6.273-6.973,6.985-5.153,2.556-10.913,3.439-16.383,5.034-2.109.606-4.258,1.213-6.327,1.924a48.82114,48.82114,0,0,1-5.852,2.175c-8.397,1.832-16.793,2.636-25.163,4.441a24.64473,24.64473,0,0,1-9.661.567c-3.348-.619-6.472-2.636-9.451-4.125a72.52142,72.52142,0,0,1-10.703-5.852,35.39629,35.39629,0,0,1-4.8898-3.953,7.42035,7.42035,0,0,1-1.3181-2.9c-.8436-2.161-.804-3.031,1.0545-4.613a5.27178,5.27178,0,0,1,5.0614-1.133C101.532,408.858,101.572,409.056,100.188,409.201Z" transform="translate(-0.03955 -0.03918)"/></g><g class="cls-7"><path class="cls-6" d="M317.382,493.455a42.40967,42.40967,0,0,0-11.995,5.483c-1.608,1.133-3.585,3.07-1.212,4.52,3.203,1.951,8.409.909,11.862.606,5.958-.54,11.863-1.634,17.768-2.412,4.033-.54,7.988-.962,11.968-1.766a127.98329,127.98329,0,0,0,15.277-4.401,46.63531,46.63531,0,0,0,10.545-4.903,89.528,89.528,0,0,0,10.109-6.59c4.099-3.439,9.504-6.128,11.085-11.624,1.318-4.573-8.567-2.925-10.544-2.635a108.54542,108.54542,0,0,0-21.525,5.363c-3.018,1.068-6.247,1.885-9.226,3.177-3.954,1.752-7.737,3.835-11.771,5.39-1.911.751-3.585,1.95-5.523,2.636-1.7.632-3.413,1.199-5.101,1.884-1.687.686-3.769,1.621-5.694,2.241C319.056,491.913,314.68,493.112,317.382,493.455Z" transform="translate(-0.03955 -0.03918)"/></g><g class="cls-7"><path class="cls-6" d="M396.375,460.151c.751-2.464,2.332-3.598,4.165-5.377,1.423-1.384,2.781-2.873,4.85-3.163,1.529-.224,3.954,1.542,3.282,3.295a12.87066,12.87066,0,0,1-2.069,2.636,7.83877,7.83877,0,0,1-2.715,2.636,9.854,9.854,0,0,1-7.039.448Z" transform="translate(-0.03955 -0.03918)"/></g><g class="cls-7"><path class="cls-6" d="M422.064,400.212a33.56459,33.56459,0,0,1-5.444,2.636,40.04136,40.04136,0,0,1-4.349.751c-4.363.686-8.871.989-13.274,1.424-5.628.553-11.216,1.318-16.845,1.779-9.938.751-20.39,1.608-29.894,4.665a134.314,134.314,0,0,0-23.119,9.845,121.72935,121.72935,0,0,0-18.598,11.861,58.55893,58.55893,0,0,0-5.365,5.167,14.86424,14.86424,0,0,0-3.018,3.953c-1.041,2.346-.092,3.954,1.964,5.272,3.203,2.043,7.091,2.227,10.755,2.728,5.444.751,10.861,1.437,16.279,2.28a158.05692,158.05692,0,0,0,16.924,1.845c5.813.264,11.863.145,17.399-1.963a78.87675,78.87675,0,0,0,11.388-5.127c3.559-2.043,7.104-4.059,10.479-6.392a53.32746,53.32746,0,0,0,7.117-5.021c.936-.883,1.885-1.648,2.86-2.465,1.516-1.318,2.637-2.912,4.152-4.191a59.00891,59.00891,0,0,0,9.227-9.7c2.083-2.741,4.613-5.074,6.67-7.815,1.212-1.634,2.478-2.491,3.202-4.494A30.35546,30.35546,0,0,0,422.064,400.212Z" transform="translate(-0.03955 -0.03918)"/></g><g class="cls-7"><path class="cls-6" d="M433.953,392.068a14.506,14.506,0,0,1,3.664-4.376c1.2-1.133,2.782-3.123,4.442-3.651a2.43981,2.43981,0,0,1,2.491.383,3.20175,3.20175,0,0,1,.739,2.517c-.343,2.003-2.294,3.558-3.955,4.428-2.069,1.068-3.282.527-5.457.224Z" transform="translate(-0.03955 -0.03918)"/></g><g class="cls-7"><path class="cls-6" d="M509.611,321.243a17.91964,17.91964,0,0,0-2.953,2.873,61.029,61.029,0,0,1-3.954,5.706,43.18433,43.18433,0,0,0-4.099,6.208c-1.556,2.715-3.388,5.271-4.838,7.999-3.137,5.957-5.628,12.231-8.435,18.346-1.411,3.057-2.637,6.194-3.955,9.225a40.74808,40.74808,0,0,0-3.361,10.24c-.408,2.557-1.067,6.946,2.373,7.407,4.27.58,8.567-3.097,11.678-5.548a93.10033,93.10033,0,0,0,20.641-23.262c5.536-8.751,10.901-19.268,9.517-29.929a57.48411,57.48411,0,0,1,.316-14.498c.659-5.1,2.228-10.2,2.32-15.366,0-3.664.672-7.249-.132-10.86a4.65317,4.65317,0,0,0-1.555-3.058c-.949-.553-1.608,0-2.465.646a19.22874,19.22874,0,0,0-6.011,7.183c-1.687,3.505-1.779,7.288-3.202,10.886a38.89629,38.89629,0,0,1-1.384,3.769c-.528.988-1.174,1.937-1.714,2.939a24.95564,24.95564,0,0,0-1.766,5.654c-.317,1.199-.501,2.319-.831,3.519-.263.935-.672,1.937-.856,2.886C504.76,325.157,505.09,325.921,509.611,321.243Z" transform="translate(-0.03955 -0.03918)"/></g><g class="cls-7"><path class="cls-6" d="M470.121,384.516c-.856.843-6.037,5.851-4.033,7.13.554.356,2.083,0,2.636-.251a10.64963,10.64963,0,0,0,2.834-1.963,3.50413,3.50413,0,0,0,1.41-3.44c0-2.254-1.423-2.188-3.321-1.424Z" transform="translate(-0.03955 -0.03918)"/></g><g class="cls-7"><path class="cls-6" d="M482.485,396.403c1.107-1.476,1.423-2.108,2.979-2.714a18.85854,18.85854,0,0,1,3.585-1.621c1.647-.264,2.412.355,2.544,2.016.237,2.833-3.256,6.497-4.825,8.514a39.54554,39.54554,0,0,1-6.59,7.064c-3.572,2.794-6.169-1.714-4.837-5.061.804-2.03,1.133-4.428,2.399-6.234,1.977-2.833,4.929-2.82,8.093-3.4Z" transform="translate(-0.03955 -0.03918)"/></g><g class="cls-7"><path class="cls-6" d="M206.531,88.1292a12.15051,12.15051,0,0,0-6.037,7.9075c-.501,1.621-1.134,5.0743.224,6.4713,2.32,2.398,8.541-.224,10.795-1.094,4.389-1.6872,8.858-4.1912,13.431-5.2719,8.634-1.9901,18.111-2.794,25.532-8.1052a45.65613,45.65613,0,0,0,10.689-11.3604c1.872-2.7281,4.337-4.9423,4.587-8.4611.488-7.1168-9.451-7.5912-14.13-6.4973a140.23282,140.23282,0,0,0-28.998,9.8185c-5.456,2.6358-12.231,5.9833-16.08,10.886a18.26685,18.26685,0,0,0-2.32,4.4414C203.749,87.9842,202.695,91.2131,206.531,88.1292Z" transform="translate(-0.03955 -0.03918)"/></g><g class="cls-7"><path class="cls-6" d="M225.089,108.109c-1.173-2.636-1.753-2.86.198-4.455a31.66936,31.66936,0,0,1,5.272-3.281,15.3668,15.3668,0,0,1,7.144-1.6082c4.983.593,2.716,6.2072,1.174,8.9092-.963,1.7-1.674,3.268-3.283,4.178-1.898,1.08-3.176,1.634-5.272.935a11.69652,11.69652,0,0,1-3.954-2.517c-.844-.751-2.808-2.122-2.636-3.466l.619-.119Z" transform="translate(-0.03955 -0.03918)"/></g><g class="cls-7"><path class="cls-6" d="M190.108,169.484c.118-2.359-.079-2.886,1.397-4.375,2.188-2.241,5.404-3.954,7.988-5.615a80.65551,80.65551,0,0,1,18.901-8.803,112.60685,112.60685,0,0,1,18.123-4.204c4.587-.712,8.924-2.228,13.537-2.873,7.105-.976,15.817-4.415,21.498,2.319,4.561,5.456-3.875,12.678-7.908,15.644a30.04978,30.04978,0,0,1-11.455,5.047c-4.916,1.239-9.767,2.715-14.683,3.954-9.134,2.267-17.623,6.59-26.362,10.03-6.023,2.345-10.32,2.121-15.738-1.463C192.467,177.128,187.472,171.975,190.108,169.484Z" transform="translate(-0.03955 -0.03918)"/></g><g class="cls-7"><path class="cls-6" d="M272.896,128.813c-1.186,2.188-4.138,6.194-.329,7.565,2.162.778,3.717-.962,5.272-2.201,1.556-1.239,3.862-2.636,5.048-4.652a3.33435,3.33435,0,0,0-1.634-5.272c-4.468-1.99-6.59,2.293-9.134,5.272Z" transform="translate(-0.03955 -0.03918)"/></g><g class="cls-7"><path class="cls-6" d="M342.847,85.2825c-3.954,4.1119-6.34,8.8959-5.694,14.7345.646,5.838,4.455,6.932,9.226,4.547a27.19531,27.19531,0,0,0,4.139-2.122c1.318-1.028,2.135-2.9524,3.137-4.2966a15.56283,15.56283,0,0,0,3.414-10.0162c0-3.598.422-7.4463-.54-10.9256-.528-1.9242-1.318-4.5073-3.006-5.6934-2.003-1.3179-3.532.4349-4.995,1.621a12.18742,12.18742,0,0,0-3.585,3.4266,40.88348,40.88348,0,0,0-3.599,9.4363Z" transform="translate(-0.03955 -0.03918)"/></g><g class="cls-7"><path class="cls-6" d="M262.194,208.02c.171-2.715.092-2.899,2.056-4.402a45.76947,45.76947,0,0,1,4.521-3.321,25.99937,25.99937,0,0,1,9.78-3.018,13.94614,13.94614,0,0,1,7.908,1.318c1.543.87,1.832,2.636,1.45,4.468-.54,2.57-3.097,4.204-5.008,5.72-1.912,1.515-4.548,3.545-6.96,4.125a17.95673,17.95673,0,0,1-8.95.356c-1.792-.475-5.575-1.226-5.536-3.77Z" transform="translate(-0.03955 -0.03918)"/></g><g class="cls-7"><path class="cls-6" d="M297.162,183.046c1.753-2.478,2.861-4.679,5.536-6.3,1.16-.712,4.073-2.886,5.563-2.886a3.09642,3.09642,0,0,1,2.451,2.398c.159,1.252-1.067,2.926-1.74,3.954a14.49159,14.49159,0,0,1-6.076,5.166,4.98522,4.98522,0,0,1-3.585.396c-1.318-.369-1.793-1.595-2.86-1.99Z" transform="translate(-0.03955 -0.03918)"/></g><g class="cls-7"><path class="cls-6" d="M157.999,77.4277c-3.506,3.4793-6.366,7.1563-7.5,12.138a3.82039,3.82039,0,0,0,1.015,4.1778c1.859,1.6474,4.231.7512,6.406,0,6.089-2.0691,11.863-5.7066,17.135-9.2254,4.851-3.1894,11.349-4.0856,15.066-8.7246,2.016-2.5041,4.125-5.2717,2.188-8.5929-1.687-2.8335-5.971-4.046-8.99-4.0987a26.22211,26.22211,0,0,0-12.535,3.3739A43.28461,43.28461,0,0,0,157.999,77.4277Z" transform="translate(-0.03955 -0.03918)"/></g><g class="cls-7"><path class="cls-6" d="M138.017,62.4429c6.749-1.3179,12.574-2.7018,18.453-6.2997,1.186-.7117,2.373-1.0543,3.506-1.7001,1.134-.6457,1.318-1.397,2.162-2.1877-.58-2.7413-7.975-1.0939-9.675-.369-2.267.9489-4.56,2.28-6.762,3.387a23.91317,23.91317,0,0,0-3.427,1.8715c-2.201,1.6342-3.519,4.4677-4.995,6.7213Z" transform="translate(-0.03955 -0.03918)"/></g></g><g class="cls-8"><g class="cls-8"><path class="cls-6" d="M347.842,212.831a60.89694,60.89694,0,0,1-6.01,3.321c-3.388,1.384-6.472,3.334-9.833,4.784-3.954,1.713-8.225,2.846-12.298,4.243a83.56493,83.56493,0,0,0-16.515,7.42c-5.273,3.216-10.308,7.908-13.01,13.496-1.542,3.229-2.175,7.591-.29,10.846a11.784,11.784,0,0,0,4.851,4.85c3.466,1.555,6.84.567,10.32-.25a53.73488,53.73488,0,0,0,12.693-4.494c2.149-1.12,4.192-2.425,6.34-3.559,2.149-1.133,4.745-2.056,7.105-3.018,1.832-.751,3.704-1.41,5.589-2.003a21.48453,21.48453,0,0,0,6.405-3.426,33.23511,33.23511,0,0,0,9.398-10.373c2.94-5.271,4.469-10.648,3.454-16.553C355.25,213.542,351.889,211.302,347.842,212.831Z" transform="translate(-0.03955 -0.03918)"/></g><g class="cls-8"><path class="cls-6" d="M283.125,245.607c-1.318-1.753-2.162-1.581-4.271-1.463a36.20194,36.20194,0,0,0-4.837.857c-7.909,1.661-15.975,2.504-23.831,4.52a53.50363,53.50363,0,0,0-12.548,4.455c-3.954,2.135-8.08,4.046-11.968,6.379a93.321,93.321,0,0,1-28.774,11.782c-6.367,1.318-12.733,2.636-19.126,3.822-3.848.711-7.75,1.318-11.586,2.109-3.835.79-7.631,1.91-11.48,2.767a146.01617,146.01617,0,0,0-20.285,5.694c-6.736,2.543-13.603,4.902-18.875,10.003-2.702,2.635-6.169,6.444-6.156,10.451a15.53093,15.53093,0,0,0,2.636,7.907c5.273,8.725,15.409,13.904,24.214,18.372,12.205,6.194,26.717,6.998,40.069,8.54a166.20733,166.20733,0,0,0,52.21-2.636c7.71-1.568,15.474-3.097,23.211-4.547,9.332-1.752,18.77-2.991,28.075-4.942,7.658-1.621,15.369-3.413,22.895-5.601a94.55,94.55,0,0,0,12.14-4.257,99.42488,99.42488,0,0,0,9.978-5.522,70.28514,70.28514,0,0,0,7.908-5.074,35.40285,35.40285,0,0,0,5.563-6.102c2.741-3.532,4.507-7.433,6.695-11.268a84.27176,84.27176,0,0,1,4.745-7.855c1.78-2.438,3.876-4.731,5.813-7.051,4.06-4.889,9.042-9.107,12.838-14.181,2.215-2.952,4.376-6.668,4.68-10.398.21-2.543.224-5.153-2.439-6.313a15.825,15.825,0,0,0-8.185-.87,49.64386,49.64386,0,0,0-8.093,2.307,75.67118,75.67118,0,0,0-13.537,5.351c-10.861,5.825-21.551,13.06-33.782,15.656-5.049,1.081-10.097,1.635-14.947-.369a49.96614,49.96614,0,0,1-10.321-5.403c-4.218-3.044-2.939-6.656-1.094-10.82C281.451,250.062,283.744,246.068,283.125,245.607Z" transform="translate(-0.03955 -0.03918)"/></g><g class="cls-8"><path class="cls-6" d="M517.69,188.989a91.29625,91.29625,0,0,1-1.067,13.272c-.277,1.964-.607,3.954-.91,5.878-.408,2.636-1.66,4.955-2.28,7.551-1.107,4.653-3.321,8.685-5.272,12.995s-3.269,9.028-5.273,13.456c-5.456,12.547-8.712,25.844-14.037,38.431-2.636,6.233-5.035,12.678-7.909,18.78-2.636,5.496-5.76,10.754-8.488,16.184-1.028,2.03-3.836,5.772-1.7,7.907,1.7,1.687,4.797.132,6.59-.83,7.17-3.835,10.215-12.915,14.631-19.281,2.24-3.216,5.681-5.641,8.014-8.83,3.044-4.165,6.656-9.133,8.659-13.838,4.166-9.74,6.723-19.835,10.334-29.772,2.992-8.211,3.44-16.171,3.44-24.79,0-3.611.409-7.235-.685-10.688C520.735,212.158,519.944,206.768,517.69,188.989Z" transform="translate(-0.03955 -0.03918)"/></g><g class="cls-8"><path class="cls-6" d="M504.378,201.352c-3.031,2.912-9.226,10.068-6.274,14.826,1.621,2.636,6.34,1.476,8.001-.764,1.423-1.924,1.12-5.14,1.12-7.394,0-1.239.409-3.097,0-4.217-.408-1.12-1.582-1.318-1.832-2.451Z" transform="translate(-0.03955 -0.03918)"/></g><g class="cls-8"><path class="cls-6" d="M446.33,339.351a102.617,102.617,0,0,0-11.138,7.63,69.45255,69.45255,0,0,1-10.716,5.918,111.06653,111.06653,0,0,1-29.749,9.304c-13.181,2.307-26.731,4.06-39.543,8.29-9.727,3.203-19.362,6.59-28.998,10.029-9.094,3.216-19.428,5.523-27.521,10.966-1.99,1.317-4.666,3.413-3.954,6.102,1.133,4.296,9.951,4.467,13.088,4.599,9.464.395,19.06,0,28.537,0,4.547,0,9.108-.25,13.642.198a85.98922,85.98922,0,0,0,16.977,0c7.104-.633,14.499-.488,21.379-2.636,13.181-4.231,26.269-9.226,39.174-14.273,11.572-4.573,28.365-14.023,27.35-28.48C454.423,350.738,450.548,341.987,446.33,339.351Z" transform="translate(-0.03955 -0.03918)"/></g><g class="cls-8"><path class="cls-6" d="M465.363,350.738c-1.925-3.954-2.439-4.995-.356-8.646,1.318-2.319,5.272-5.733,8.225-5.746,5.891,0,6.076,6.748,4.758,10.846-1.16,3.585-2.636,9.041-6.92,9.226a4.52,4.52,0,0,1-3.757-1.16c-1.397-1.028-3.321-4.31-4.811-4.56Z" transform="translate(-0.03955 -0.03918)"/></g><g class="cls-8"><path class="cls-6" d="M50.5225,362.151c-1.0676,4.481-1.7135,8.566.4745,12.876,3.0184,5.996,9.6879,10.016,15.817,11.953a46.10065,46.10065,0,0,0,11.8627,1.832c4.4947.211,8.9762.91,13.4709.989a150.94615,150.94615,0,0,1,20.1004,1.594c3.704.541,7.289,1.621,10.98,2.069a78.26838,78.26838,0,0,1,8.541,1.397c6.011,1.397,11.995,1.437,18.058,2.28a69.23277,69.23277,0,0,0,19.323-.448c5.549-.83,11.428-1.568,14.064-6.932,2.069-4.217.553-6.484-3.137-9.357-3.282-2.557-8.792-3.664-12.641-4.929-5.891-1.951-11.744-3.756-17.794-5.272-8.435-2.043-16.555-5.047-24.898-7.512-17.135-5.048-33.5718-12.085-51.4978-13.706-7.4208-.686-16.1992-.765-23.0532,2.636a10.0792,10.0792,0,0,0-4.7188,5.535C43.998,360.727,45.7774,362.876,50.5225,362.151Z" transform="translate(-0.03955 -0.03918)"/></g><g class="cls-8"><path class="cls-6" d="M49.5205,330.758c.9886,3.137.7908,4.112,3.6906,4.995a10.14754,10.14754,0,0,0,5.8919.566c2.4516-.711,5.3778-2.517,5.6941-5.087.3559-2.86-2.1749-4.981-4.5079-6.233-4.6792-2.504-8.4489-2.307-10.7687,2.899Z" transform="translate(-0.03955 -0.03918)"/></g><g class="cls-8"><path class="cls-6" d="M250.304,120.484a9.41986,9.41986,0,0,1,1.015-4.929,46.41476,46.41476,0,0,1,3.269-6.141c.91-1.318,1.489-2.781,2.346-4.152,1.213-1.937,2.452-3.703,3.493-5.746a40.68633,40.68633,0,0,1,5.273-7.0904,25.97,25.97,0,0,0,3.321-4.7709c.751-1.4233,1.885-2.5304,2.636-3.9537,1.002-1.7397,1.674-3.7825,2.636-5.6012a52.54074,52.54074,0,0,1,3.19-5.7066,14.91593,14.91593,0,0,1,2.9-3.756,19.72994,19.72994,0,0,1,2.834-2.3723c2.293-1.0016,3.466-.2109,4.653,1.911a24.25148,24.25148,0,0,1,2.451,12.0458,45.36907,45.36907,0,0,1-2.359,12.6652,49.38723,49.38723,0,0,1-4.139,8.1581c-2.807,4.942-6.168,9.515-9.45,14.154-1.938,2.742-5.207,5.008-7.909,7.077a17.46013,17.46013,0,0,1-5.536,2.926c-1.133.369-2.715,1.147-3.954.896a24.40323,24.40323,0,0,1-3.361-1.318C250.871,123.766,249.553,121.407,250.304,120.484Z" transform="translate(-0.03955 -0.03918)"/></g><g class="cls-8"><path class="cls-6" d="M239.839,124.293c-1.648.83-3.375,1.41-4.073,3.216-.198.487-.514,1.528-.172,2.042,1.318,1.911,5.853-.645,6.881-1.673s2.162-2.913,1.173-4.271a2.635,2.635,0,0,0-3.809-.263Z" transform="translate(-0.03955 -0.03918)"/></g><g class="cls-8"><path class="cls-6" d="M324.051,56.2618a10.22952,10.22952,0,0,0-2.992,1.9901,10.16266,10.16266,0,0,0-.923,2.3986,39.2445,39.2445,0,0,0-2.214,9.344c-.316,3.1367-.409,8.6851,3.256,9.9767,7.117,2.504,17.517-2.6358,18.097-10.6092.329-4.5337-2.135-8.751-4.785-12.204a26.52735,26.52735,0,0,0-4.534-4.9554,5.76075,5.76075,0,0,0-4.257-1.1993C323.234,51.5041,321.362,53.9555,324.051,56.2618Z" transform="translate(-0.03955 -0.03918)"/></g><g class="cls-8"><path class="cls-6" d="M322.614,95.2723c0-1.5552,0-1.9374,1.028-2.9522a7.50629,7.50629,0,0,1,2.32-1.7396c1.687-.5535,2.781.6985,2.86,2.2932.066,1.2125.119,3.677-.975,4.5204s-5.523.0791-5.272-1.6474Z" transform="translate(-0.03955 -0.03918)"/></g><g class="cls-8"><path class="cls-6" d="M374.481,62.9173c-.725,2.9653-.619,6.0229-1.186,9.0541a105.00174,105.00174,0,0,0-1.635,15.0375c-.092,2.6358,0,5.1794-.131,7.7757a62.66194,62.66194,0,0,0-.317,9.5684c.422,4.125.883,8.461,3.625,11.755,1.951,2.346,4.679,1.49,7.249.541a29.88366,29.88366,0,0,0,5.747-3.664,30.61021,30.61021,0,0,0,4.06-3.176c5.681-5.272,10.795-11.0838,13.075-18.7146,1.648-5.5484,3.269-11.8612,1.912-17.581a22.08138,22.08138,0,0,0-4.785-9.9239,22.26793,22.26793,0,0,0-6.696-4.995c-2.096-1.1202-4.363-1.2125-6.59-1.7396a25.11381,25.11381,0,0,0-5.694-.6063,27.88751,27.88751,0,0,0-5.273.5272C374.112,57.4743,373.189,62.4297,374.481,62.9173Z" transform="translate(-0.03955 -0.03918)"/></g><g class="cls-8"><path class="cls-6" d="M380.188,124.767c.659-2.069,2.149-4.204,4.587-3.071a3.65055,3.65055,0,0,1,1.858,4.745,3.18894,3.18894,0,0,1-3.69,1.581,5.45829,5.45829,0,0,1-2.307-1.818c-.857-1.147-.158-2.043,0-3.348Z" transform="translate(-0.03955 -0.03918)"/></g><g class="cls-8"><path class="cls-6" d="M386.858,175.665a24.7083,24.7083,0,0,0-5.536,1.173,4.20637,4.20637,0,0,1-.699,1.16c-.382.501-1.516,1.16-1.318,1.885,2.399,1.014,5.826-.607,7.909-1.727a14.11838,14.11838,0,0,0,3.044-2.003,12.4451,12.4451,0,0,0,1.622-1.727c.764-1.383,0-2.108-1.411-2.095-1.41.013-4.863,1.107-4.995,2.86Z" transform="translate(-0.03955 -0.03918)"/></g><g class="cls-8"><path class="cls-6" d="M465.837,167.586a9.421,9.421,0,0,1-1.067,4.653c-.672,1.7-1.621,3.716-1.318,5.614.659,4.494,6.867,3.598,10.03,3.189,3.717-.487,7.25-1.318,10.031-3.953a10.27053,10.27053,0,0,0,3.651-6.761c.659-4.771,1.766-12.837-5.272-12.745a15.30613,15.30613,0,0,0-8.093,2.979,18.73606,18.73606,0,0,0-4.231,4.125C467.933,166.598,466.127,168.193,465.837,167.586Z" transform="translate(-0.03955 -0.03918)"/></g><g class="cls-8"><path class="cls-6" d="M416.356,426.333c2.057-6.668,5.273-12.335,11.376-16.118,1.423-.883,2.636-2.029,4.336-1.146,1.397.738,1.134,2.359.699,3.743a20.176,20.176,0,0,1-3.546,5.864,57.71721,57.71721,0,0,1-4.547,4.587,7.82526,7.82526,0,0,1-3.322,2.148A17.25493,17.25493,0,0,0,416.356,426.333Z" transform="translate(-0.03955 -0.03918)"/></g><g class="cls-8"><path class="cls-6" d="M174.172,433.99c.119-2.556,1.595-3.756,3.611-5.443a44.64069,44.64069,0,0,1,15.092-7.643c4.667-1.463,10.229-2.491,15.066-1.16,2.162.606,4.864,1.647,5.787,3.861,1.581,3.822-2.531,9.45-5.576,11.558-3.836,2.636-9.385,3.453-13.774,4.784a31.02641,31.02641,0,0,1-12.64,1.068,18.33725,18.33725,0,0,1-4.495-.83,40.9137,40.9137,0,0,1-4.086-1.239c-1.186-.633-2.728-1.621-2.834-3.031a4.5834,4.5834,0,0,1,.58-2.425C171.654,432.277,173.236,432.119,174.172,433.99Z" transform="translate(-0.03955 -0.03918)"/></g></g><path class="cls-9" d="M458.943,150.401c-1.555,1.041-4.508,2.517-3.954,4.863a30.22417,30.22417,0,0,0,1.213,3.071,13.22,13.22,0,0,1,.567,2.846,8.60771,8.60771,0,0,0,1.753,4.363c.711.777,1.463,0,1.95-.751a5.27829,5.27829,0,0,0,1.108-2.636,18.178,18.178,0,0,1,.434-3.69c.132-.475.488-.897.594-1.318a8.12028,8.12028,0,0,0,.079-2.03,5.10144,5.10144,0,0,0-3.744-4.718Z" transform="translate(-0.03955 -0.03918)"/><path class="cls-9" d="M434.084,284.209c-.276.145-.606.25-.751.54a1.63666,1.63666,0,0,0-.119.501c-.065.751.976,1.081,1.49,1.226a5.66184,5.66184,0,0,0,4.534-.475,4.25423,4.25423,0,0,0,1.964-2.807,3.8493,3.8493,0,0,0-2.162-3.466,3.78479,3.78479,0,0,0-3.809-.382,2.42772,2.42772,0,0,0-1.002,1.147c-.145.395-.118.817-.237,1.212s-.514.923-.435,1.502A1.68434,1.68434,0,0,0,434.084,284.209Z" transform="translate(-0.03955 -0.03918)"/><path class="cls-9" d="M442.56,286.753a.88179.88179,0,0,1,.408-.791.67165.67165,0,0,1,.883-.119,1.15379,1.15379,0,0,1,.302.332,1.15283,1.15283,0,0,1,.129.871,1.15611,1.15611,0,0,1-.193.405,1.21248,1.21248,0,0,1-1.094.343.951.951,0,0,1-.686-.975Z" transform="translate(-0.03955 -0.03918)"/><path class="cls-9" d="M463.399,255.109a1.96392,1.96392,0,0,0-1.318.673.889.889,0,0,0-.276.357.89926.89926,0,0,0-.067.447,3.95459,3.95459,0,0,0,1.397,2.464,2.00781,2.00781,0,0,0,1.74.343,5.39955,5.39955,0,0,0,1.463-.962,11.76187,11.76187,0,0,0,1.173-.962,2.31851,2.31851,0,0,0,1.028-2.28,2.49381,2.49381,0,0,0-1.726-1.846,3.228,3.228,0,0,0-1.727.159C464.401,253.686,463.913,253.686,463.399,255.109Z" transform="translate(-0.03955 -0.03918)"/><path class="cls-9" d="M459.51,257.89a2.94435,2.94435,0,0,1,1.107.725c-.079.211.132.395,0,.62-.132.224-.725.079-.962,0a1.31544,1.31544,0,0,1-.738-.673c0-.118-.29-.632,0-.579Z" transform="translate(-0.03955 -0.03918)"/><path class="cls-9" d="M413.219,275.023c-.422.475-.896.989-.593,1.727a1.51594,1.51594,0,0,0,1.687.659.86553.86553,0,0,0,.844-.488c.145-.356.197-.791.316-1.16.277-.896,1.318-1.318.791-2.385a1.76,1.76,0,0,0-.498-.609,1.74085,1.74085,0,0,0-.715-.327c-.857,0-1.529.791-2.03,1.489Z" transform="translate(-0.03955 -0.03918)"/><path class="cls-9" d="M287.646,364.483c.263-.566.579-1.607,1.555-1.963a2.75437,2.75437,0,0,1,1.819,0c1.463.237,2.913.698,1.951,2.148a4.64547,4.64547,0,0,1-2.637,1.516c-.87.145-2.478-.132-2.399-.87Z" transform="translate(-0.03955 -0.03918)"/><path class="cls-9" d="M376.089,57.1844c-.33,1.3179-.778,2.9653.724,3.9538,1.029.6326,2.637,0,3.493-.6985a9.32653,9.32653,0,0,0,2.874-5.074c.224-1.7265-1.859-3.5716-3.44-3.7692-3.23-.3954-4.956,4.7313-5.141,7.1431Z" transform="translate(-0.03955 -0.03918)"/><path class="cls-9" d="M368.892,347.93a7.092,7.092,0,0,0-1.055,5.101c.132,1.067.145,2.504,1.542,2.86,3.296.83,6.71-5.272,7.593-7.288a10.56166,10.56166,0,0,0,1.041-5.088c-.092-.962-.804-2.846-1.951-3.242a4.7444,4.7444,0,0,0-4.402,1.516c-2.478,2.478-2.294,5.338-3.638,8.013Z" transform="translate(-0.03955 -0.03918)"/><path class="cls-9" d="M367.165,347.706a11.90281,11.90281,0,0,0-2.517.659c-.409.238-1.055.607-1.2.989a1.415,1.415,0,0,0,.554,1.318,1.32416,1.32416,0,0,0,.571.235,1.30945,1.30945,0,0,0,.615-.051,3.16888,3.16888,0,0,0,.844-.725,8.07894,8.07894,0,0,0,1.002-1.318,3.16094,3.16094,0,0,0,.421-.672c.119-.369-.158-.461-.237-.738Z" transform="translate(-0.03955 -0.03918)"/><path class="cls-9" d="M363.396,362.335l1.107.33c-.119.369,0,.777-.475,1.054a2.86705,2.86705,0,0,1-1.476.198c-.488-.106-.765-.382-.699-.804s.673-.738,1.239-.883Z" transform="translate(-0.03955 -0.03918)"/><path class="cls-9" d="M307.614,374.645c0,.395,0,.672.448.843a2.31045,2.31045,0,0,0,2.215-.474c.804-.752,1.516-2.135,1.015-2.887a1.76809,1.76809,0,0,0-2.215-.25,7.34585,7.34585,0,0,0-1.107.962,2.14811,2.14811,0,0,0-.382,1.713Z" transform="translate(-0.03955 -0.03918)"/><path class="cls-9" d="M248.959,279.61c-.395.355-.593.474-.685.975a2.11379,2.11379,0,0,0,.171,1.621,5.75943,5.75943,0,0,0,3.362,1.95,3.06887,3.06887,0,0,0,2.715-.514,3.95583,3.95583,0,0,0,1.753-2.754,2.63712,2.63712,0,0,0-1.147-2.9,8.08707,8.08707,0,0,0-3.058-1.449,2.712,2.712,0,0,0-2.386.738C249.025,277.83,248.155,278.832,248.959,279.61Z" transform="translate(-0.03955 -0.03918)"/><path class="cls-9" d="M257.606,283.471c0-.316,0-.698.317-.791a2.17664,2.17664,0,0,1,1.568.633,1.85312,1.85312,0,0,1,.448,1.212,1.31976,1.31976,0,0,1-.553.712,1.09191,1.09191,0,0,1-1.318.092c-.277-.171-.949-.527-.844-.935Z" transform="translate(-0.03955 -0.03918)"/><path class="cls-9" d="M92.1473,249.732a17.77655,17.77655,0,0,1-3.427-11.65c.0922-1.779-.1054-4.995,2.4253-4.745,3.4006.33,5.1405,5.602,6.0895,8.237,1.4104,3.954,2.7809,7.908,2.2803,12.138-.6854,5.786-8.3039-5.733-9.0553-6.8Z" transform="translate(-0.03955 -0.03918)"/><path class="cls-9" d="M99.4759,230.609c-.6063,3.361.8961,8.132,4.5341,9.226,1.318.382,1.779-.422,2.465-1.648a4.73281,4.73281,0,0,0,.633-3.953,12.10418,12.10418,0,0,0-1.569-2.504,8.46587,8.46587,0,0,1-.936-1.411c-.25-.54-.158-.962-.58-1.436-1.015-1.147-4.9426-2.082-4.5471.593Z" transform="translate(-0.03955 -0.03918)"/><path class="cls-9" d="M136.541,468.955a10.77856,10.77856,0,0,1,4.151-5.206,22.41282,22.41282,0,0,1,7.118-3.163,12.10683,12.10683,0,0,1,7.21.554c2.228,1.186,4.205,2.952,6.314,4.322,1.911,1.252,3.835,1.951,5.509,3.612a15.17915,15.17915,0,0,1,3.388,5.39c1.16,3.057,2.003,7.749.698,10.859-1.186,2.834-2.86,2.874-5.694,2.821-3.954-.066-7.816-3.308-10.32-6.208a29.24545,29.24545,0,0,0-3.783-4.204c-1.806-1.423-3.691-2.741-5.589-4.033a55.14031,55.14031,0,0,1-5.391-3.4C139.427,469.667,137.081,467.874,136.541,468.955Z" transform="translate(-0.03955 -0.03918)"/><path class="cls-9" d="M205.054,289.27c-.25,1.45-.619,2.082.448,2.794a1.93973,1.93973,0,0,0,2.254,0c.804-.475,2.637-2.188,2.36-3.203-.475-2.122-5.8-2.201-5.523.369Z" transform="translate(-0.03955 -0.03918)"/><path class="cls-9" d="M304.82,357.34c-.857-3.953,3.176-9.713,7.737-12.942,6.498-4.612,16.371-5.614,23.646-4.639,6.103.804,11.112,4.033,12.338,8.409.329,1.173.105,2.398.382,3.571.224.896.461,1.41-.857,2.162-3.282,1.858-8.475,3.004-12.166,3.611a69.39591,69.39591,0,0,1-12.482,1.318c-3.533-.079-6.907-.593-10.439-.725a28.0864,28.0864,0,0,1-5.022-.435C307.126,357.512,305.057,357.802,304.82,357.34Z" transform="translate(-0.03955 -0.03918)"/><path class="cls-9" d="M338.286,332.972c.606.751.633,1.186,1.832,1.318a4.97305,4.97305,0,0,0,2.636-.778c.963-.553,2.294-1.871,1.819-2.635-.843-1.437-6.59-.58-5.997,1.318Z" transform="translate(-0.03955 -0.03918)"/><path class="cls-9" d="M428.575,256.533a8.113,8.113,0,0,1,1.173-3.058,2.51667,2.51667,0,0,1,1.911-.356,3.87953,3.87953,0,0,1,3.005,1.74,5.43574,5.43574,0,0,1,1.318,1.937c.91,4.152-6.406,2.359-7.368-.263Z" transform="translate(-0.03955 -0.03918)"/><path class="cls-10" d="M454.916,528.005c58.817-37.654,91.749-91.211,73.556-119.623-18.194-28.412-80.623-20.92-139.441,16.734-58.817,37.654-91.749,91.211-73.556,119.623C333.669,573.151,396.098,565.659,454.916,528.005Z" transform="translate(-0.03955 -0.03918)"/></g></g></g></svg>